<svg width="70" height="70" viewBox="0 0 70 70" fill="none" xmlns="http://www.w3.org/2000/svg">
<path d="M35.0131 44.1985C37.9769 44.1985 40.4918 43.1611 42.5578 41.0864C44.6237 39.0117 45.6567 36.4924 45.6567 33.5286C45.6567 30.5648 44.6193 28.0499 42.5446 25.9839C40.4699 23.9179 37.9506 22.8849 34.9868 22.8849C32.023 22.8849 29.5081 23.9223 27.4421 25.997C25.3762 28.0717 24.3432 30.591 24.3432 33.5548C24.3432 36.5187 25.3805 39.0335 27.4553 41.0995C29.53 43.1655 32.0492 44.1985 35.0131 44.1985ZM34.9999 41.4167C32.8124 41.4167 30.9531 40.6511 29.4218 39.1198C27.8906 37.5886 27.1249 35.7292 27.1249 33.5417C27.1249 31.3542 27.8906 29.4948 29.4218 27.9636C30.9531 26.4323 32.8124 25.6667 34.9999 25.6667C37.1874 25.6667 39.0468 26.4323 40.5781 27.9636C42.1093 29.4948 42.8749 31.3542 42.8749 33.5417C42.8749 35.7292 42.1093 37.5886 40.5781 39.1198C39.0468 40.6511 37.1874 41.4167 34.9999 41.4167ZM35.008 52.5C28.6905 52.5 22.933 50.7809 17.7355 47.3426C12.538 43.9044 8.64543 39.3041 6.05786 33.5417C8.64543 27.7793 12.5353 23.179 17.7274 19.7408C22.9196 16.3025 28.6744 14.5834 34.9919 14.5834C41.3094 14.5834 47.0669 16.3025 52.2644 19.7408C57.4619 23.179 61.3545 27.7793 63.942 33.5417C61.3545 39.3041 57.4646 43.9044 52.2724 47.3426C47.0803 50.7809 41.3255 52.5 35.008 52.5ZM34.9999 49.5834C40.493 49.5834 45.5364 48.1372 50.1301 45.2448C54.7239 42.3525 58.236 38.4514 60.6666 33.5417C58.236 28.632 54.7239 24.7309 50.1301 21.8386C45.5364 18.9462 40.493 17.5 34.9999 17.5C29.5069 17.5 24.4635 18.9462 19.8697 21.8386C15.276 24.7309 11.7638 28.632 9.33328 33.5417C11.7638 38.4514 15.276 42.3525 19.8697 45.2448C24.4635 48.1372 29.5069 49.5834 34.9999 49.5834Z" fill="white"/>
</svg>
