<svg width="400" height="270" viewBox="0 0 400 270" fill="none" xmlns="http://www.w3.org/2000/svg">
<path d="M367.167 24.3097C356.762 20.3935 345.252 18.0459 335.908 15.5315C304.024 6.95353 244.041 5.07328 211.208 10.2245C177.125 15.576 200.045 48.7419 199.207 76.9791C198.459 103.87 197.522 130.783 200.491 157.585C202.076 171.848 205.269 191.319 218.956 197.126C257.025 213.27 295.261 158.72 316.081 134.944C325.247 124.464 335.06 113.805 346 105.138C362.177 92.3438 383.812 78.9261 391.582 58.7551C398.191 41.6214 381.691 29.7725 367.167 24.3097Z" fill="#B8362F"/>
<path d="M233.246 200.965C228.205 200.96 223.218 199.934 218.588 197.95C205.191 192.253 201.429 174.396 199.609 157.674C196.762 132.085 197.499 106.073 198.203 80.9066L198.314 76.968C198.549 68.4012 196.584 59.4116 194.697 50.7224C191.906 37.9055 189.26 25.8007 194.697 17.868C197.767 13.4177 203.126 10.5917 211.063 9.34565C222.986 7.47652 238.504 6.48633 255.953 6.48633C286.642 6.48633 317.354 9.62379 336.143 14.6749C338.722 15.3647 341.434 16.0322 344.304 16.7443C352.16 18.5318 359.909 20.7605 367.513 23.4197C373.274 25.6449 387.24 31.8308 392.241 42.9454C393.377 45.4721 393.983 48.2035 394.021 50.972C394.06 53.7404 393.53 56.4874 392.464 59.0444C385.889 76.0668 369.523 88.3831 355.132 99.2418C352.107 101.467 349.26 103.692 346.503 105.839C335.629 114.44 325.76 125.187 316.718 135.534C314.184 138.427 311.359 141.831 308.356 145.425C289.958 167.543 262.138 200.965 233.246 200.965ZM255.931 8.2887C238.582 8.2887 223.154 9.27889 211.275 11.1369C203.874 12.2495 198.917 14.8307 196.137 18.9249C191.136 26.2123 193.692 37.95 196.394 50.3663C198.314 59.1668 200.29 68.2677 200.056 77.0682L199.944 81.0067C199.241 106.14 198.515 132.185 201.34 157.552C203.137 173.751 206.676 191.018 219.202 196.359C223.642 198.226 228.416 199.176 233.235 199.151C261.267 199.151 288.752 166.13 306.916 144.279C309.919 140.663 312.755 137.259 315.3 134.344C324.398 123.941 334.334 113.105 345.342 104.415C348.099 102.19 350.924 100.076 353.994 97.7398C368.25 87.0702 384.371 74.932 390.734 58.4325C391.715 56.0991 392.206 53.5898 392.175 51.0599C392.145 48.53 391.593 46.0333 390.555 43.7243C385.833 33.2327 372.403 27.247 366.855 25.1665C359.318 22.5098 351.636 20.2811 343.846 18.491C340.966 17.779 338.264 17.1114 335.663 16.4105C317.053 11.4039 286.475 8.2887 255.931 8.2887Z" fill="#84212F"/>
<g style="mix-blend-mode:multiply" opacity="0.7">
<path d="M367.167 24.3098C364.242 23.1972 361.239 22.2515 358.236 21.3615C358.772 21.8288 359.297 22.296 359.81 22.7744C368.652 31.0854 376.031 44.7144 368.205 56.2407C363.494 63.1721 355.378 66.5766 347.831 69.5138C343.533 71.2049 339.057 72.6846 335.015 74.9543C329.36 78.1131 324.044 81.8411 319.152 86.08C309.941 94.0906 302.171 103.492 294.167 112.648C286.91 120.959 280.714 130.527 272.364 137.815C267.162 142.365 259.369 147.283 252.046 145.603C247.156 144.49 244.365 140.185 242.992 135.59C241.105 129.326 240.994 122.561 241.239 116.075C241.496 109.233 242.266 102.424 243.115 95.6371C245.091 79.6938 246.464 63.0831 243.785 47.1399C242.255 38.3394 239.509 29.4833 234.106 22.2515C229.991 16.7692 224.636 12.3321 218.476 9.30115C215.942 9.59042 213.519 9.91306 211.231 10.2691C177.148 15.6206 200.067 48.7865 199.23 77.0237C198.482 103.915 197.544 130.828 200.514 157.63C202.099 171.893 205.292 191.363 218.979 197.171C257.047 213.314 295.283 158.765 316.104 134.989C325.269 124.508 335.082 113.85 346.023 105.183C362.177 92.3438 383.812 78.9262 391.582 58.7552C398.191 41.6215 381.691 29.7726 367.167 24.3098Z" fill="#C25359"/>
</g>
<g style="mix-blend-mode:multiply" opacity="0.7">
<path d="M384.65 34.4898C386.509 37.7091 387.726 41.2567 388.233 44.9369C391.259 69.6472 359.475 76.9123 344.237 88.4164C333.108 96.5398 322.655 105.544 312.978 115.341C304.627 124.03 297.873 133.921 290.204 143.155C283.092 151.722 275.088 160.155 265.052 165.307C258.353 168.767 248.071 172.471 240.759 168.466C239.191 167.572 237.822 166.37 236.732 164.934C235.642 163.498 234.855 161.858 234.418 160.111C232.755 154.114 232.822 147.416 233.011 141.197C233.424 127.946 235.244 114.74 236.193 101.511C238.426 70.9267 239.676 30.4066 214.111 9.73499L211.13 10.1689C177.047 15.5204 199.966 48.6863 199.129 76.9235C198.381 103.814 197.443 130.728 200.413 157.53C201.998 171.793 205.191 191.263 218.878 197.071C256.947 213.214 295.183 158.664 316.003 134.889C325.169 124.408 334.982 113.75 345.922 105.083C362.177 92.3438 383.812 78.9261 391.582 58.7551C395.412 48.8198 391.471 40.6646 384.65 34.4898Z" fill="#C25359"/>
</g>
<g style="mix-blend-mode:screen">
<path d="M335.35 19.5813C329.355 18.6467 323.282 18.3686 317.209 17.7456C305.119 16.4995 293.095 15.0643 280.96 14.3188C271.169 13.718 256.924 7.98826 248.071 14.4078C241.92 18.8581 247.848 26.4682 251.778 29.8393C263.433 39.8525 274.965 27.0467 286.977 26.012C293.988 25.4001 301.133 26.1121 308.133 26.6128C315.948 27.1691 323.706 28.8379 331.432 30.3177C337.695 31.5193 347.307 34.7012 353.558 32.4093C358.794 30.4846 355.959 26.0231 352.498 24.3209C349.092 22.8272 345.542 21.6828 341.903 20.9053C339.743 20.3541 337.556 19.9122 335.35 19.5813Z" fill="#D44D49"/>
</g>
<g style="mix-blend-mode:multiply">
<path d="M236.059 16.1545C236.051 14.7802 236.332 13.4194 236.885 12.1604C236.149 13.3544 235.857 14.7678 236.059 16.1545Z" fill="#E46268"/>
</g>
<path d="M219.927 100.299C219.369 117.978 219.682 136.313 215.372 153.58C213.285 161.958 179.458 196.759 196.673 200.853C214.904 205.192 227.709 180.549 230.488 161.424C234.954 130.895 233.592 76.4562 233.48 69.0131C233.479 59.1845 232.321 49.39 230.031 39.8302C228.52 33.6306 226.129 27.6776 222.93 22.1513C220.071 17.2648 216.035 13.1657 211.186 10.2245C207.268 7.99938 176.333 2.77027 180.151 12.1604C181.769 16.1546 201.741 20.9275 204.577 24.0316C208.7 28.2833 212.169 33.1198 214.87 38.3838C221.49 52.1353 220.82 68.5346 220.452 83.3987C220.273 89.0061 220.139 94.6691 219.927 100.299Z" fill="#FFDE8E"/>
<path d="M200.949 202.278C199.467 202.274 197.99 202.094 196.55 201.744C193.916 201.12 192.185 199.774 191.426 197.738C188.836 190.84 198.493 177.356 206.263 166.519C210.226 160.956 213.977 155.75 214.569 153.358C218.175 138.894 218.532 123.585 218.878 108.743C218.945 105.906 219.012 103.08 219.101 100.277C219.246 95.5147 219.369 90.764 219.503 86.0133L219.604 81.8968C219.983 67.8227 220.408 51.8572 214.1 38.7733C211.431 33.5956 208.016 28.8352 203.963 24.6436C202.847 23.4531 198.214 21.7286 193.726 20.0598C185.688 17.0781 180.329 14.9419 179.358 12.5054C179.06 11.916 178.92 11.2594 178.954 10.6001C178.987 9.94077 179.192 9.30142 179.548 8.74487C180.854 6.79786 184.203 5.85217 189.785 5.85217C198.169 5.85217 209.154 8.07732 211.61 9.43467C216.612 12.4432 220.78 16.6502 223.734 21.673C226.969 27.2802 229.393 33.3142 230.935 39.5966C233.262 49.219 234.439 59.0819 234.44 68.9798V70.8934C235.367 122.072 233.324 148.44 231.404 161.535C228.97 178.468 217.884 202.278 200.949 202.278ZM189.785 7.6768C183.355 7.6768 181.513 8.97851 180.988 9.75732C180.81 10.0713 180.716 10.4258 180.716 10.7864C180.716 11.1471 180.81 11.5016 180.988 11.8156C181.747 13.6958 188.992 16.3883 194.295 18.3464C199.42 20.2489 203.852 21.8955 205.247 23.4198C209.425 27.7371 212.942 32.6443 215.685 37.9834C222.183 51.4901 221.758 67.6669 221.368 81.9524L221.267 86.0578C221.133 90.8196 221.01 95.5703 220.865 100.332C220.776 103.136 220.709 105.895 220.642 108.788C220.296 123.73 219.927 139.183 216.288 153.803C215.607 156.528 212.113 161.401 207.681 167.576C200.569 177.512 190.823 191.107 193.067 197.093C193.404 197.862 193.935 198.532 194.608 199.037C195.28 199.541 196.073 199.864 196.908 199.975C198.21 200.281 199.544 200.438 200.882 200.442C209.657 200.442 216.109 193.41 219.972 187.503C224.959 179.53 228.243 170.618 229.618 161.324C231.504 148.295 233.559 122.039 232.632 70.9713V69.0465C232.639 59.3038 231.492 49.5944 229.216 40.1195C227.708 33.982 225.333 28.0894 222.16 22.6187C219.378 17.8655 215.449 13.8804 210.728 11.0257C208.764 9.89082 198.002 7.6768 189.785 7.6768Z" fill="#EEC196"/>
<path d="M205.348 195.813C207.042 194.523 208.632 193.102 210.103 191.563C215.685 185.611 219.146 178.746 221.892 171.537C225.442 160.1 226.548 148.095 227.407 135.334C228.959 112.493 229.45 89.3176 227.407 66.4986C226.539 56.3705 224.65 46.3551 221.77 36.6037C219.023 27.514 214.513 21.4393 206.922 15.7874C187.441 1.32392 161.965 4.80629 139.514 6.88681C94.3791 11.1257 40.681 23.275 21.1109 69.1354C14.6421 84.355 10.3613 100.408 8.39525 116.82C5.76059 141.03 7.46865 165.407 7.35702 189.694C7.27887 208.241 6.24063 227.644 8.4734 246.091C9.58978 255.247 13.2738 267.463 25.2191 264.648C38.0241 261.633 45.4033 249.44 53.7874 240.394C78.0687 214.193 120.368 217.653 153 213.893C168.216 212.092 183.005 207.688 196.718 200.876C199.717 199.405 202.602 197.713 205.348 195.813Z" fill="#B8362F"/>
<path d="M21.881 265.906C14.0664 265.906 9.13195 259.074 7.56901 246.124C5.83862 231.772 6.07306 216.763 6.29634 202.233C6.36332 198.083 6.4303 193.788 6.44147 189.616C6.44147 182.496 6.35216 175.253 6.22935 168.233C5.92793 151.31 5.58185 133.854 7.4797 116.698C9.46569 100.206 13.7726 84.0745 20.2735 68.7794C29.2045 47.9743 45.9503 32.0644 70.3544 21.5506C88.4845 13.7625 111.069 8.62244 139.403 5.97451L143.5 5.56286C151.471 4.79518 159.71 4.00525 167.915 4.00525C184.773 4.00525 197.332 7.50986 207.446 15.0309C215.35 20.9053 219.894 27.2692 222.618 36.3033C225.512 46.1027 227.416 56.1659 228.3 66.3429C230.131 86.614 230.142 108.532 228.3 135.323C227.496 147.283 226.402 159.944 222.718 171.726C219.369 180.549 215.674 186.824 210.728 192.131C209.222 193.705 207.595 195.16 205.861 196.481C203.061 198.401 200.121 200.108 197.064 201.588C183.253 208.438 168.363 212.871 153.045 214.694C146.402 215.45 139.492 215.918 132.169 216.396C104.672 218.221 73.5138 220.29 54.4013 240.873C52.5927 242.82 50.8735 244.878 49.0426 247.059C42.4783 254.847 35.646 262.968 25.3753 265.394C24.2341 265.697 23.0616 265.869 21.881 265.906ZM167.915 5.87438C159.799 5.87438 151.605 6.66431 143.678 7.42086L139.548 7.78801C98.7663 11.6041 42.1657 22.118 21.9592 69.4915C15.5232 84.6211 11.2648 100.581 9.31057 116.898C7.45737 133.943 7.7588 151.388 8.06022 168.244C8.18302 175.275 8.30583 182.529 8.27233 189.672C8.27233 193.844 8.19419 198.15 8.1272 202.311C7.90393 216.774 7.66949 231.727 9.38872 245.957C10.3823 254.246 13.3965 264.126 21.881 264.126C22.9304 264.119 23.9756 263.992 24.9958 263.747C34.7194 261.455 41.3061 253.601 47.6807 246.002C49.4445 243.91 51.2642 241.741 53.1063 239.76C72.71 218.621 104.259 216.507 132.09 214.66C139.392 214.182 146.28 213.726 152.877 212.969C167.989 211.168 182.678 206.795 196.305 200.041C199.263 198.603 202.11 196.949 204.823 195.09C206.466 193.842 208.008 192.465 209.433 190.974C214.212 185.856 217.795 179.759 221.033 171.225C224.616 159.688 225.699 147.138 226.492 135.289C228.3 108.587 228.3 86.7587 226.492 66.5877C225.628 56.5253 223.758 46.574 220.91 36.8819C218.253 28.1259 214.055 22.2292 206.397 16.5329C196.573 9.26773 184.359 5.87438 167.915 5.87438Z" fill="#84212F"/>
<g style="mix-blend-mode:multiply" opacity="0.7">
<path d="M227.396 66.5097C226.527 56.3816 224.639 46.3662 221.758 36.6148C219.012 27.5251 214.502 21.4504 206.91 15.7985C187.429 1.33503 161.954 4.8174 139.503 6.89791C94.3901 11.1257 40.692 23.275 21.1218 69.1354C14.6531 84.355 10.3723 100.408 8.40624 116.82C5.77157 141.03 7.47964 165.407 7.368 189.694C7.30102 208.241 6.25162 227.644 8.48438 246.091C9.60077 255.247 13.2848 267.463 25.2301 264.648C38.035 261.633 45.4143 249.44 53.7984 240.394C78.0797 214.193 120.379 217.653 153.011 213.893C168.227 212.094 183.017 207.69 196.729 200.876C199.749 199.41 202.652 197.718 205.414 195.813C207.109 194.523 208.699 193.102 210.17 191.563C215.752 185.611 219.213 178.746 221.959 171.537C225.509 160.1 226.614 148.095 227.474 135.334C228.97 112.504 229.461 89.3287 227.396 66.5097ZM163.472 161.079C151.314 166.319 137.996 167.754 125.046 169.846C111.917 171.993 99.157 175.409 87.3457 181.583C82.0213 184.384 76.9129 187.575 72.0624 191.129C67.0387 194.801 62.4727 198.917 57.5494 202.8C51.4316 207.573 44.4654 212.391 36.7735 214.171C13.5751 219.545 14.6803 186.79 15.4618 172.327C16.0423 161.524 16.7903 150.721 17.4043 139.906C17.8843 131.529 18.5207 123.218 19.4919 114.818C22.8411 86.0243 30.812 47.7962 59.5366 34.1672C71.1135 27.0355 84.6775 23.6533 98.1634 21.1389C112.241 18.3154 126.573 16.9434 140.932 17.0446C147.99 17.1254 155.036 17.6755 162.021 18.6912C167.792 19.5479 173.709 20.438 179.213 22.4406C186.869 25.0265 193.464 30.0402 197.99 36.715C202.523 43.7353 204.622 51.9795 205.638 60.1792C210.137 96.7051 201.072 144.835 163.472 161.056V161.079Z" fill="#C25359"/>
</g>
<g style="mix-blend-mode:multiply" opacity="0.7">
<path d="M221.446 139.417C217.36 151.021 214.647 163.805 206.799 173.35C200.178 181.417 188.635 186.212 178.833 189.861C158.671 197.338 136.6 195.747 115.512 197.338C102.808 198.283 89.9803 200.175 77.9011 204.325C71.8077 206.425 65.9279 209.096 60.3404 212.302C54.1518 215.663 48.4507 219.848 43.3937 224.74C37.4433 230.793 32.4754 241.596 22.7517 241.941C14.8143 242.219 10.6613 234.965 8.80812 228.223C7.9084 224.827 7.32172 221.356 7.0554 217.854C6.97022 227.282 7.44365 236.707 8.4732 246.08C9.58959 255.236 13.2736 267.452 25.2189 264.637C38.0239 261.622 45.4031 249.428 53.7872 240.383C78.0685 214.182 120.368 217.642 153 213.882C168.216 212.081 183.005 207.677 196.718 200.865C199.719 199.412 202.607 197.739 205.358 195.858C207.053 194.567 208.643 193.146 210.114 191.608C215.696 185.656 219.157 178.791 221.903 171.582C225.453 160.144 226.559 148.14 227.418 135.378C228.021 126.578 228.456 117.733 228.646 108.877C227.241 119.265 224.83 129.492 221.446 139.417Z" fill="#C25359"/>
</g>
<g style="mix-blend-mode:screen">
<path d="M105.967 28.4152C97.8636 27.5317 89.667 28.679 82.1211 31.7529C74.8268 34.5965 67.8182 38.1205 61.189 42.2779C51.9327 48.1187 44.2639 56.1435 38.8613 65.642C32.6542 76.2671 30.254 87.7823 27.6975 99.6534C26.2908 106.14 25.4647 112.76 24.6163 119.335C24.0134 124.197 23.7455 129.737 25.2414 134.444C25.9001 136.558 28.1775 136.457 29.3497 134.844C31.6941 131.618 32.9222 127.145 34.2841 123.474C39.0064 110.835 42.8803 98.2405 50.0475 86.6697C57.5942 74.3423 69.2158 66.0536 81.496 58.9665C87.2454 55.6288 93.1175 52.5915 98.9116 49.365C103.846 46.6281 110.779 44.7033 114.106 39.8413C119.33 32.1868 112.844 29.1495 106.068 28.4041L105.967 28.4152Z" fill="#D44D49"/>
</g>
<g style="mix-blend-mode:screen">
<path d="M145.967 24.5434C140.966 21.5728 134.937 22.118 129.735 24.4544C126.475 25.2666 123.383 26.9243 122.188 29.7391L122.11 29.8059C121.97 29.9343 121.869 30.0997 121.82 30.2829C121.77 30.4661 121.774 30.6595 121.831 30.8406C121.668 31.6272 121.63 32.4344 121.719 33.2326C122.568 40.8204 138.554 38.7955 142.796 37.3158C148.713 35.2909 152.743 28.5598 145.967 24.5434Z" fill="#D44D49"/>
</g>
<g style="mix-blend-mode:multiply" opacity="0.7">
<path d="M130.427 70.2814C128.585 58.0431 117.12 45.1594 104.549 43.2792C98.8223 42.4336 91.9677 43.2792 87.0556 46.5168C81.2839 50.255 77.1979 57.1641 73.3241 62.638C72.8887 63.2499 72.9557 63.8062 73.2459 64.051C71.4599 67.7663 70.2552 71.7322 69.6735 75.8109C68.7023 82.809 68.4008 90.7528 70.1089 97.6285C69.9526 97.0278 64.6833 97.1835 63.9688 97.2503C61.448 97.4787 59.0273 98.3441 56.9356 99.7647C56.6565 99.965 55.7076 101.033 56.3551 101.367C60.2624 103.369 64.8619 103.514 68.7246 105.706C73.5697 108.443 77.5217 112.181 81.5518 115.964C85.6341 119.684 89.2852 123.849 92.4366 128.38C94.927 132.341 97.1642 136.455 99.1349 140.696C99.5479 141.531 100.687 140.218 100.72 139.728C100.966 136.691 100.988 132.83 99.7377 130.005C98.9786 128.28 98.2418 126.556 97.4268 124.864C97.1254 124.23 96.3774 123.062 95.8304 121.961C100.14 123.54 104.27 121.961 108.635 120.058C114.094 117.688 119.732 114.395 123.316 109.566C131.354 98.5742 132.381 83.3764 130.427 70.2814Z" fill="#C25359"/>
</g>
<g style="mix-blend-mode:multiply" opacity="0.7">
<path d="M175.015 134.622C170.84 136.691 166.921 139.228 162.668 141.13C158.984 142.777 155.121 143.845 151.326 145.158C135.293 150.978 118.004 152.486 101.2 149.53C97.6531 148.933 94.1902 147.918 90.8846 146.504C87.5354 145.002 88.8304 143.5 89.0984 141.242C89.6087 140.306 90.0526 139.335 90.4269 138.338C90.7506 137.403 89.8017 137.069 89.1765 137.715C86.0953 140.93 82.4782 144.223 82.8801 149.03C83.3601 154.592 93.2513 156.818 97.2033 158.153C100.709 159.399 103.902 160.879 106.235 163.882C108.568 166.886 110.086 170.491 111.66 173.896C114.25 179.592 117.242 185.578 122.612 189.149C132.526 195.747 148.59 187.747 154.876 179.459C159.174 173.807 160.926 166.319 163.081 159.699C165.869 151.075 170.154 143.005 175.741 135.857C176.243 135.189 176.132 134.043 175.015 134.622Z" fill="#C25359"/>
</g>
<g style="mix-blend-mode:multiply" opacity="0.7">
<path d="M212.604 98.2961C207.224 97.8871 201.817 98.5645 196.707 100.288C198.683 90.5971 200.748 80.8843 198.939 70.9935C197.499 62.8828 192.565 55.4842 186.235 50.333C172.492 39.1404 155.702 45.8826 145.855 58.388C141.278 64.3537 138.255 71.3574 137.059 78.7724C135.863 86.1874 136.53 93.7822 139.001 100.877C141.8 108.47 147.386 114.72 154.63 118.367C163.427 122.528 171.912 121.827 180.776 118.79C179.476 122.627 178.512 126.569 177.896 130.572C177.868 130.708 177.868 130.848 177.896 130.984C177.859 131.108 177.83 131.234 177.806 131.362C177.617 132.285 178.923 131.64 179.113 131.061C179.113 131.061 179.113 130.95 179.113 130.895C179.504 130.628 179.792 130.235 179.927 129.782C180.151 128.669 180.352 127.557 180.564 126.511C183.189 120.619 186.987 115.32 191.728 110.935C196.763 106.073 204.633 101.133 211.744 100.432C212.738 100.41 213.999 98.3851 212.604 98.2961Z" fill="#C25359"/>
</g>
<path d="M129.712 84.1997C129.712 103.614 117.209 119.346 101.803 119.346C86.3968 119.346 73.8933 103.614 73.8933 84.1997C73.8933 64.7853 86.408 49.0646 101.803 49.0646C117.198 49.0646 129.712 64.7964 129.712 84.1997Z" fill="white"/>
<path d="M101.781 120.258C85.8722 120.258 72.9221 104.081 72.9221 84.1997C72.9221 64.318 85.8722 48.1522 101.781 48.1522C117.689 48.1522 130.617 64.318 130.617 84.1997C130.617 104.081 117.689 120.258 101.781 120.258ZM101.781 49.9768C86.8769 49.9768 74.7976 65.3304 74.7976 84.1997C74.7976 103.069 86.9216 118.434 101.825 118.434C116.729 118.434 128.842 103.08 128.842 84.1997C128.842 65.3193 116.673 49.9768 101.781 49.9768Z" fill="#5A0817"/>
<path d="M196.885 84.1997C196.885 103.614 184.371 119.346 168.976 119.346C153.581 119.346 141.066 103.614 141.066 84.1997C141.066 64.7853 153.581 49.0646 168.976 49.0646C184.371 49.0646 196.885 64.7964 196.885 84.1997Z" fill="white"/>
<path d="M168.953 120.258C153.045 120.258 140.095 104.081 140.095 84.1997C140.095 64.318 153.045 48.1522 168.953 48.1522C184.862 48.1522 197.801 64.318 197.801 84.1997C197.801 104.081 184.862 120.258 168.953 120.258ZM168.953 49.9768C154.05 49.9768 141.926 65.3304 141.926 84.1997C141.926 103.069 154.05 118.434 168.953 118.434C183.857 118.434 195.97 103.08 195.97 84.1997C195.97 65.3193 183.846 49.9768 168.953 49.9768Z" fill="#5A0817"/>
<path d="M119.375 85.8019C119.375 98.0402 111.493 107.931 101.78 107.931C92.0679 107.931 84.1863 98.0291 84.1863 85.8019C84.1863 73.5747 92.001 63.6616 101.78 63.6616C111.56 63.6616 119.375 73.5747 119.375 85.8019Z" fill="#534C4D"/>
<path d="M111.482 85.8018C111.482 92.544 107.139 98.0402 101.781 98.0402C96.422 98.0402 92.0681 92.5774 92.0681 85.8018C92.0681 79.0262 96.422 73.5635 101.781 73.5635C107.139 73.5635 111.482 79.0596 111.482 85.8018Z" fill="#181314"/>
<path d="M101.68 77.7023C101.68 81.7298 99.079 85.0008 95.875 85.0008C92.671 85.0008 90.0698 81.7298 90.0698 77.7023C90.0698 73.6748 92.6598 70.3927 95.875 70.3927C99.0902 70.3927 101.68 73.6637 101.68 77.7023Z" fill="white"/>
<path d="M186.547 85.8019C186.547 98.0402 178.666 107.931 168.953 107.931C159.241 107.931 151.348 98.0291 151.348 85.8019C151.348 73.5747 159.23 63.6616 168.953 63.6616C178.677 63.6616 186.547 73.5747 186.547 85.8019Z" fill="#534C4D"/>
<path d="M178.621 85.8018C178.621 92.544 174.278 98.0402 168.92 98.0402C163.561 98.0402 159.207 92.5774 159.207 85.8018C159.207 79.0262 163.55 73.5635 168.92 73.5635C174.29 73.5635 178.621 79.0596 178.621 85.8018Z" fill="#181314"/>
<path d="M168.842 77.7023C168.842 81.7298 166.252 85.0008 163.048 85.0008C159.844 85.0008 157.242 81.7298 157.242 77.7023C157.242 73.6748 159.832 70.3927 163.048 70.3927C166.263 70.3927 168.842 73.6637 168.842 77.7023Z" fill="white"/>
<path d="M96.5672 127.557C90.8848 112.493 78.426 102.858 62.964 98.8857C62.4393 98.7522 61.6467 99.8648 62.2831 100.098C69.4796 102.833 76.2465 106.579 82.3779 111.224C88.4064 115.674 91.309 122.561 95.5066 128.458C95.9308 129.059 96.757 128.035 96.5672 127.557Z" fill="#6B160C"/>
<path d="M203.081 99.9316C189.919 103.025 183.567 114.306 178.856 125.777C178.51 126.622 179.581 126.322 179.86 125.855C182.506 121.404 184.393 116.342 187.474 112.192C191.42 107.127 196.786 103.344 202.891 101.322C203.505 101.144 204.086 99.698 203.081 99.9316Z" fill="#6B160C"/>
<path d="M170.528 139.55L170.371 139.695C170.304 139.584 170.17 139.55 169.958 139.695C163.651 143.845 157.555 147.294 150.276 149.486C143.014 151.597 135.562 152.994 128.027 153.658C120.334 154.399 112.579 154.182 104.94 153.013C101.801 152.496 98.6957 151.794 95.6406 150.91C94.4126 150.565 83.9855 147.094 87.3905 144.646C87.9934 144.212 88.2501 142.666 87.223 143.333C82.1882 146.582 86.3411 149.63 90.4047 151.522C92.872 152.656 95.4494 153.536 98.0966 154.147C107.329 159.71 110.98 168.377 115.869 177.712C120 185.589 127.402 189.95 136.266 187.914C143.879 186.123 149.662 178.791 153.413 172.46C159.62 161.991 161.853 148.796 170.818 140.196C171.276 139.806 171.119 139.072 170.528 139.55Z" fill="#6B160C"/>
<path d="M137.795 185.567C126.453 190.017 119.207 179.792 115.166 170.981C112.085 164.305 108.177 158.831 102.361 154.993C107.31 155.725 112.306 156.097 117.309 156.106C134.647 156.339 153.558 152.367 167.848 142.154C156.059 155.238 156.014 178.368 137.795 185.567Z" fill="#F58882"/>
<path d="M166.642 142.977C152.509 152.579 134.167 156.328 117.309 156.117C115.077 156.117 112.844 156.017 110.611 155.872C124.823 172.572 156.048 161.713 166.642 142.977Z" fill="white"/>
<path d="M138.688 169.99C132.258 170.48 123.059 174.441 121.741 181.35C125.772 185.689 131.063 188.226 137.795 185.567C143.366 183.274 148.026 179.22 151.058 174.029C147.602 171.161 143.177 169.716 138.688 169.99Z" fill="#F0514D"/>
</svg>
