<svg width="400" height="270" viewBox="0 0 400 270" fill="none" xmlns="http://www.w3.org/2000/svg">
<path d="M372.315 20.9325C361.59 16.8951 349.725 14.475 340.092 11.8828C307.225 3.03954 245.392 1.10114 211.546 6.41167C176.412 11.9287 200.038 46.1203 199.175 75.2307C198.404 102.953 197.437 130.699 200.498 158.33C202.132 173.034 205.424 193.106 219.533 199.094C258.776 215.736 298.191 159.5 319.654 134.989C329.102 124.184 339.218 113.196 350.496 104.261C367.171 91.0706 389.474 77.2379 397.484 56.4431C404.296 38.7796 387.287 26.5642 372.315 20.9325Z" fill="#B8362F"/>
<path d="M234.263 203.05C229.067 203.046 223.927 201.988 219.153 199.942C205.343 194.07 201.465 175.66 199.589 158.421C196.655 132.041 197.414 105.224 198.139 79.2794L198.254 75.2191C198.496 66.3873 196.471 57.1196 194.526 48.1617C191.649 34.9484 188.921 22.4693 194.526 14.2913C197.69 9.70333 203.214 6.78999 211.397 5.50537C223.687 3.57843 239.684 2.55762 257.671 2.55762C289.307 2.55762 320.966 5.79211 340.334 10.9994C342.993 11.7105 345.789 12.3987 348.747 13.1328C356.846 14.9756 364.834 17.2732 372.672 20.0147C378.61 22.3087 393.007 28.6859 398.163 40.1443C399.334 42.7491 399.958 45.565 399.998 48.419C400.038 51.2731 399.491 54.1051 398.393 56.7411C391.615 74.29 374.744 86.9871 359.91 98.1817C356.791 100.476 353.856 102.77 351.014 104.983C339.805 113.849 329.632 124.929 320.31 135.596C317.698 138.578 314.786 142.088 311.69 145.793C292.725 168.595 264.047 203.05 234.263 203.05ZM257.648 4.41573C239.764 4.41573 223.86 5.43655 211.615 7.35201C203.985 8.49899 198.876 11.16 196.01 15.3809C190.855 22.8936 193.49 34.9943 196.275 47.7947C198.254 56.8673 200.291 66.2496 200.05 75.3223L199.935 79.3826C199.21 105.293 198.462 132.144 201.373 158.295C203.226 174.995 206.874 192.796 219.786 198.302C224.363 200.227 229.284 201.206 234.252 201.181C263.149 201.181 291.482 167.138 310.206 144.612C313.302 140.884 316.225 137.374 318.848 134.369C328.228 123.645 338.47 112.473 349.817 103.515C352.66 101.221 355.571 99.0419 358.736 96.6332C373.432 85.6337 390.05 73.1201 396.609 56.1103C397.621 53.7048 398.127 51.1179 398.095 48.5097C398.063 45.9015 397.495 43.3276 396.425 40.9472C391.557 30.1311 377.713 23.9603 371.993 21.8155C364.224 19.0767 356.305 16.779 348.275 14.9336C345.306 14.1995 342.521 13.5113 339.839 12.7887C320.655 7.62729 289.134 4.41573 257.648 4.41573Z" fill="#84212F"/>
<g style="mix-blend-mode:multiply" opacity="0.7">
<path d="M372.316 20.9324C369.301 19.7854 366.205 18.8105 363.109 17.8929C363.662 18.3746 364.202 18.8564 364.732 19.3496C373.846 27.9175 381.453 41.9681 373.386 53.8508C368.529 60.9966 360.163 64.5063 352.384 67.5344C347.953 69.2778 343.338 70.8033 339.172 73.1431C333.342 76.3996 327.863 80.243 322.819 84.613C313.325 92.8712 305.315 102.563 297.064 112.003C289.583 120.571 283.196 130.435 274.588 137.948C269.225 142.639 261.193 147.709 253.643 145.977C248.603 144.83 245.726 140.391 244.31 135.654C242.365 129.196 242.25 122.223 242.503 115.536C242.768 108.482 243.562 101.462 244.437 94.4655C246.474 78.0293 247.889 60.9048 245.127 44.4685C243.551 35.3959 240.72 26.2659 235.15 18.8105C230.908 13.1586 225.388 8.58432 219.038 5.45959C216.426 5.75781 213.929 6.09044 211.57 6.45747C176.435 11.9745 200.061 46.1661 199.198 75.2765C198.427 102.999 197.46 130.745 200.522 158.375C202.156 173.08 205.447 193.152 219.556 199.139C258.799 215.782 298.215 159.545 319.677 135.034C329.125 124.23 339.241 113.242 350.519 104.307C367.172 91.0705 389.474 77.2378 397.484 56.443C404.297 38.7795 387.288 26.5641 372.316 20.9324Z" fill="#C25359"/>
</g>
<g style="mix-blend-mode:multiply" opacity="0.7">
<path d="M390.338 31.4274C392.255 34.7462 393.509 38.4035 394.032 42.1975C397.15 67.6721 364.387 75.1619 348.678 87.0217C337.206 95.3963 326.431 104.679 316.455 114.779C307.847 123.737 300.885 133.933 292.978 143.453C285.648 152.285 277.396 160.979 267.05 166.29C260.146 169.857 249.547 173.676 242.009 169.547C240.393 168.625 238.981 167.386 237.857 165.906C236.734 164.426 235.923 162.734 235.472 160.933C233.757 154.751 233.826 147.846 234.022 141.435C234.448 127.774 236.324 114.159 237.302 100.522C239.603 68.9911 240.892 27.2179 214.539 5.90698L211.466 6.35431C176.332 11.8713 199.958 46.0629 199.095 75.1733C198.324 102.896 197.357 130.641 200.418 158.272C202.052 172.977 205.344 193.049 219.453 199.036C258.696 215.679 298.111 159.442 319.574 134.931C329.022 124.127 339.138 113.138 350.416 104.203C367.172 91.0705 389.474 77.2379 397.484 56.4431C401.431 46.2005 397.369 37.7931 390.338 31.4274Z" fill="#C25359"/>
</g>
<g style="mix-blend-mode:screen">
<path d="M339.517 16.0577C333.337 15.0943 327.077 14.8075 320.816 14.1652C308.353 12.8806 295.959 11.401 283.449 10.6325C273.357 10.0131 258.672 4.10617 249.546 10.7243C243.205 15.3122 249.316 23.1576 253.367 26.6329C265.381 36.9558 277.269 23.754 289.652 22.6873C296.879 22.0565 304.245 22.7905 311.46 23.3067C319.516 23.8802 327.514 25.6007 335.478 27.1261C341.934 28.3649 351.842 31.6453 358.287 29.2825C363.684 27.2982 360.761 22.6988 357.194 20.9439C353.683 19.404 350.023 18.2242 346.272 17.4227C344.045 16.8544 341.791 16.3989 339.517 16.0577Z" fill="#D44D49"/>
</g>
<g style="mix-blend-mode:multiply">
<path d="M237.163 12.5247C237.154 11.108 237.445 9.70522 238.015 8.40735C237.256 9.63814 236.955 11.0952 237.163 12.5247Z" fill="#E46268"/>
</g>
<path d="M220.534 99.2713C219.958 117.497 220.28 136.399 215.838 154.2C213.686 162.837 178.817 198.715 196.562 202.936C215.355 207.409 228.555 182.003 231.42 162.287C236.024 130.813 234.62 74.6914 234.505 67.0181C234.503 56.8855 233.31 46.7881 230.949 36.9327C229.391 30.5413 226.927 24.4043 223.629 18.7071C220.682 13.6695 216.521 9.44354 211.523 6.41143C207.483 4.11746 175.594 -1.27336 179.53 8.40718C181.199 12.5249 201.787 17.4454 204.71 20.6455C208.96 25.0287 212.536 30.0148 215.32 35.4416C222.145 49.6183 221.454 66.5249 221.075 81.8486C220.89 87.6294 220.752 93.4675 220.534 99.2713Z" fill="#FFDE8E"/>
<path d="M200.971 204.404C199.443 204.4 197.921 204.215 196.436 203.853C193.72 203.211 191.937 201.823 191.154 199.724C188.484 192.613 198.439 178.711 206.448 167.54C210.534 161.805 214.401 156.437 215.011 153.971C218.728 139.06 219.096 123.278 219.453 107.977C219.522 105.052 219.591 102.139 219.683 99.2483C219.832 94.3392 219.959 89.4416 220.097 84.544L220.201 80.3002C220.592 65.7908 221.029 49.3316 214.527 35.8431C211.776 30.5052 208.256 25.5976 204.078 21.2764C202.927 20.0491 198.151 18.2713 193.525 16.5508C185.239 13.4769 179.715 11.2747 178.714 8.76277C178.406 8.15518 178.262 7.47827 178.297 6.79856C178.331 6.11885 178.542 5.45973 178.909 4.88597C180.256 2.87874 183.708 1.90381 189.462 1.90381C198.105 1.90381 209.429 4.19778 211.961 5.5971C217.117 8.69865 221.413 13.0358 224.459 18.2139C227.793 23.9945 230.292 30.2151 231.882 36.6918C234.28 46.6118 235.493 56.7797 235.495 66.9837V68.9565C236.45 121.718 234.344 148.901 232.365 162.401C229.856 179.858 218.428 204.404 200.971 204.404ZM189.462 3.78486C182.834 3.78486 180.935 5.12683 180.394 5.92972C180.21 6.2534 180.114 6.61888 180.114 6.99068C180.114 7.36248 180.21 7.72796 180.394 8.05164C181.177 9.99005 188.645 12.7657 194.112 14.7844C199.394 16.7458 203.963 18.4433 205.401 20.0147C209.708 24.4655 213.334 29.5245 216.161 35.0287C222.859 48.9531 222.422 65.6302 222.019 80.3575L221.915 84.5899C221.777 89.499 221.651 94.3966 221.501 99.3057C221.409 102.196 221.34 105.041 221.271 108.023C220.914 123.427 220.534 139.358 216.783 154.43C216.081 157.24 212.479 162.264 207.91 168.629C200.579 178.872 190.533 192.888 192.846 199.059C193.193 199.852 193.74 200.542 194.434 201.063C195.127 201.583 195.944 201.916 196.805 202.03C198.147 202.346 199.522 202.508 200.902 202.511C209.947 202.511 216.599 195.262 220.58 189.172C225.722 180.953 229.107 171.765 230.524 162.183C232.468 148.752 234.586 121.683 233.631 69.0368V67.0525C233.638 57.0085 232.456 46.9988 230.109 37.2309C228.555 30.9036 226.107 24.8288 222.836 19.1889C219.968 14.2886 215.918 10.1803 211.052 7.23728C209.026 6.06736 197.932 3.78486 189.462 3.78486Z" fill="#EEC196"/>
<path d="M205.504 197.74C207.251 196.409 208.89 194.944 210.407 193.358C216.161 187.222 219.729 180.145 222.56 172.713C226.219 160.922 227.358 148.546 228.245 135.39C229.844 111.842 230.351 87.9506 228.245 64.426C227.349 53.9846 225.402 43.6595 222.433 33.6066C219.602 24.2357 214.953 17.9732 207.127 12.1465C187.045 -2.7643 160.784 0.825761 137.641 2.97062C91.1132 7.34063 35.7589 19.8657 15.5851 67.1444C8.9168 82.8346 4.50401 99.3844 2.47729 116.304C-0.238636 141.262 1.52211 166.393 1.40703 191.432C1.32648 210.552 0.256215 230.555 2.55785 249.572C3.70867 259.012 7.50636 271.606 19.8201 268.704C33.02 265.595 40.6269 253.025 49.2695 243.7C74.2998 216.688 117.904 220.255 151.543 216.378C167.227 214.522 182.473 209.982 196.609 202.959C199.7 201.443 202.674 199.698 205.504 197.74Z" fill="#B8362F"/>
<path d="M16.3792 270C8.32347 270 3.23686 262.958 1.62571 249.607C-0.158053 234.811 0.0836182 219.338 0.313782 204.358C0.382831 200.08 0.45188 195.652 0.463388 191.351C0.463388 184.011 0.371323 176.544 0.244733 169.306C-0.065988 151.861 -0.422742 133.864 1.53365 116.178C3.58089 99.1757 8.02062 82.5455 14.722 66.7774C23.9286 45.3288 41.1908 28.9269 66.3477 18.0879C85.037 10.059 108.318 4.75998 137.526 2.03016L141.749 1.60578C149.966 0.814359 158.459 0 166.918 0C184.295 0 197.242 3.613 207.668 11.3666C215.816 17.4227 220.5 23.9834 223.308 33.2969C226.291 43.3993 228.254 53.7738 229.165 64.2655C231.053 85.1636 231.064 107.759 229.165 135.379C228.337 147.709 227.209 160.761 223.411 172.908C219.959 182.003 216.15 188.472 211.051 193.943C209.499 195.566 207.821 197.066 206.034 198.428C203.148 200.407 200.116 202.167 196.965 203.693C182.728 210.755 167.379 215.325 151.589 217.204C144.741 217.984 137.618 218.466 130.068 218.959C101.724 220.84 69.6045 222.974 49.9025 244.193C48.0382 246.2 46.2659 248.322 44.3786 250.57C37.6118 258.599 30.5688 266.972 19.9813 269.472C18.8048 269.785 17.5962 269.962 16.3792 270ZM166.918 1.92693C158.551 1.92693 150.104 2.74129 141.933 3.52124L137.675 3.89975C95.636 7.8339 37.2895 18.6729 16.4597 67.5115C9.82519 83.1089 5.43554 99.5626 3.42099 116.384C1.51063 133.956 1.82135 151.941 2.13207 169.318C2.25866 176.567 2.38525 184.045 2.35073 191.409C2.35073 195.71 2.27017 200.149 2.20112 204.438C1.97096 219.349 1.72929 234.765 3.50155 249.435C4.52577 257.98 7.63298 268.165 16.3792 268.165C17.4609 268.158 18.5383 268.028 19.59 267.775C29.6136 265.412 36.4034 257.314 42.9746 249.48C44.7929 247.324 46.6687 245.088 48.5676 243.046C68.7759 221.253 101.298 219.074 129.988 217.17C137.514 216.677 144.615 216.206 151.416 215.426C166.994 213.57 182.136 209.062 196.183 202.099C199.233 200.616 202.168 198.91 204.964 196.994C206.658 195.707 208.247 194.288 209.717 192.751C214.642 187.474 218.336 181.189 221.674 172.392C225.368 160.497 226.484 147.559 227.301 135.344C229.165 107.816 229.165 85.3127 227.301 64.5178C226.41 54.1443 224.483 43.8853 221.547 33.8934C218.808 24.8666 214.481 18.7876 206.586 12.915C196.459 5.42523 183.869 1.92693 166.918 1.92693Z" fill="#84212F"/>
<g style="mix-blend-mode:multiply" opacity="0.7">
<path d="M228.232 64.4375C227.337 53.9961 225.39 43.671 222.421 33.618C219.59 24.2472 214.94 17.9846 207.115 12.158C187.033 -2.75282 160.771 0.837236 137.629 2.9821C91.124 7.34063 35.7697 19.8657 15.5958 67.1444C8.92755 82.8346 4.51475 99.3845 2.48804 116.304C-0.227894 141.262 1.53286 166.393 1.41777 191.432C1.34873 210.552 0.266957 230.555 2.56859 249.572C3.71941 259.012 7.51711 271.606 19.8309 268.704C33.0307 265.596 40.6376 253.025 49.2803 243.7C74.3105 216.688 117.915 220.255 151.553 216.378C167.238 214.524 182.484 209.984 196.619 202.959C199.732 201.448 202.725 199.703 205.573 197.74C207.319 196.409 208.958 194.944 210.475 193.358C216.229 187.222 219.797 180.145 222.628 172.713C226.287 160.922 227.427 148.546 228.313 135.39C229.855 111.854 230.361 87.9621 228.232 64.4375ZM162.337 161.931C149.804 167.333 136.075 168.813 122.725 170.969C109.192 173.183 96.038 176.704 83.8623 183.07C78.3737 185.957 73.1077 189.247 68.1076 192.911C62.929 196.696 58.2221 200.94 53.147 204.943C46.8405 209.864 39.6594 214.83 31.7303 216.665C7.81632 222.205 8.95563 188.438 9.7612 173.527C10.3596 162.39 11.1307 151.253 11.7636 140.104C12.2585 131.467 12.9144 122.899 13.9157 114.24C17.3681 84.5556 25.5849 45.1452 55.1955 31.0947C67.1295 23.7425 81.1119 20.2557 95.0138 17.6635C109.525 14.7526 124.299 13.3382 139.102 13.4426C146.378 13.5259 153.64 14.093 160.841 15.1401C166.79 16.0233 172.89 16.9409 178.563 19.0055C186.455 21.6714 193.254 26.8401 197.92 33.7213C202.592 40.9587 204.756 49.4579 205.803 57.9112C210.441 95.5666 201.096 145.185 162.337 161.908V161.931Z" fill="#C25359"/>
</g>
<g style="mix-blend-mode:multiply" opacity="0.7">
<path d="M222.099 139.599C217.887 151.562 215.09 164.741 207 174.582C200.176 182.898 188.276 187.842 178.172 191.604C157.388 199.311 134.637 197.671 112.898 199.311C99.8016 200.286 86.5787 202.236 74.1268 206.514C67.8456 208.68 61.7843 211.433 56.0245 214.738C49.6451 218.204 43.7681 222.518 38.5551 227.562C32.4212 233.801 27.3001 244.938 17.2765 245.294C9.09416 245.581 4.81312 238.102 2.90276 231.152C1.97529 227.651 1.37052 224.072 1.09598 220.462C1.00818 230.182 1.49621 239.898 2.55752 249.561C3.70833 259 7.50603 271.594 19.8198 268.692C33.0197 265.584 40.6266 253.013 49.2692 243.688C74.2995 216.677 117.904 220.244 151.542 216.367C167.227 214.511 182.473 209.971 196.608 202.947C199.702 201.45 202.68 199.725 205.516 197.786C207.262 196.455 208.901 194.99 210.418 193.404C216.172 187.268 219.74 180.191 222.571 172.759C226.23 160.968 227.37 148.592 228.256 135.436C228.877 126.363 229.326 117.245 229.522 108.115C228.073 118.824 225.587 129.368 222.099 139.599Z" fill="#C25359"/>
</g>
<g style="mix-blend-mode:screen">
<path d="M103.058 25.1649C94.7048 24.2541 86.2554 25.4368 78.4768 28.6058C70.9574 31.5373 63.7327 35.1703 56.899 39.4563C47.3572 45.4777 39.4518 53.7507 33.8826 63.5429C27.4841 74.4966 25.0098 86.3679 22.3745 98.6062C20.9244 105.293 20.0728 112.118 19.1982 118.896C18.5768 123.909 18.3006 129.621 19.8427 134.472C20.5217 136.652 22.8693 136.548 24.0777 134.885C26.4944 131.559 27.7603 126.948 29.1643 123.163C34.0323 110.133 38.0256 97.1496 45.4138 85.2209C53.1934 72.5124 65.1734 63.9673 77.8324 56.661C83.7591 53.2201 89.8124 50.0888 95.7851 46.7626C100.872 43.941 108.018 41.9567 111.448 36.9444C116.834 29.0531 110.147 25.9219 103.162 25.1534L103.058 25.1649Z" fill="#D44D49"/>
</g>
<g style="mix-blend-mode:screen">
<path d="M144.293 21.1732C139.137 18.1108 132.923 18.6728 127.56 21.0815C124.2 21.9188 121.012 23.6278 119.781 26.5296L119.7 26.5985C119.556 26.7308 119.452 26.9014 119.401 27.0902C119.35 27.2791 119.354 27.4784 119.412 27.6651C119.245 28.4761 119.206 29.3082 119.297 30.1312C120.172 37.9536 136.652 35.8661 141.025 34.3406C147.124 32.2531 151.278 25.3138 144.293 21.1732Z" fill="#D44D49"/>
</g>
<g style="mix-blend-mode:multiply" opacity="0.5">
<path d="M160.125 167.348C153.819 158.151 143.588 154.553 133.069 152.944C127.971 152.162 122.781 150.955 117.637 150.725C114.291 150.667 110.955 151.109 107.74 152.036C98.5334 153.599 89.8217 156.749 82.3529 162.382C78.5206 165.29 76.2305 169.279 74.0555 173.429C72.0876 177.223 69.1875 181.373 70.0967 185.844C72.1681 196.076 85.1609 184.902 88.809 182.683C93.6692 179.626 98.8819 177.167 104.333 175.36C111.238 173.222 120.031 173.923 127.097 174.728C133.277 175.429 138.973 177.706 144.509 180.476C149.112 182.775 154.003 185.304 159.331 184.879C168.929 184.12 162.945 171.429 160.125 167.348Z" fill="#804837"/>
</g>
<g style="mix-blend-mode:multiply" opacity="0.5">
<path d="M192.589 99.3398C187.986 96.9717 183.912 98.0868 179.067 99.1788C178.388 99.3283 173.589 101.041 174.394 98.0983C175.062 95.7187 175.304 93.3506 175.752 90.925C177.41 81.8204 178.054 69.7155 174.084 60.8869C176.968 60.2508 179.679 58.9961 182.03 57.2096C184.381 55.4232 186.315 53.1477 187.698 50.5408C184.752 51.219 181.76 51.6904 178.952 52.0467C174.544 52.6445 170.056 53.3227 165.602 53.5067C159.413 53.6562 153.221 53.4143 147.063 52.7824C132.321 51.5064 115.047 45.8851 105.783 33.5732C105.138 37.8611 107.371 42.2984 108.867 46.1495C110.943 51.3878 114.36 55.99 118.775 59.4959C118.416 59.5114 118.063 59.6015 117.74 59.7603C116.427 60.4824 115.276 61.4642 114.356 62.6457C112.227 65.2897 111.341 68.6579 109.834 71.6238C109.132 70.4742 108.683 68.7154 107.958 67.7153C106.814 66.1416 105.568 64.644 104.229 63.232C102.438 61.1972 100.432 59.3625 98.2449 57.7601C95.7476 55.9322 94.6773 56.0587 96.4611 53.0238C98.2448 49.989 97.2436 44.2412 96.8754 40.8615C96.5416 37.7806 94.5737 35.1826 92.9166 32.5271C93.015 32.3858 93.0743 32.221 93.0884 32.0494C93.1025 31.8778 93.0711 31.7055 92.9971 31.55C92.7949 31.1925 92.572 30.847 92.3296 30.5154C91.5927 33.1554 90.5782 35.7102 89.303 38.137C89.303 38.5049 89.1879 38.8612 89.1189 39.2176C88.2558 43.6204 85.6664 45.8965 82.6743 48.8049C79.6822 51.7133 75.0789 54.001 70.9129 55.7943C65.0232 58.8262 58.6741 60.869 52.1201 61.841C46.0093 62.7262 39.5992 62.6802 33.9257 60.1971C33.876 60.3333 33.8526 60.4776 33.8566 60.6225C34.1098 63.4734 37.4587 66.6002 39.3921 68.5085C40.025 69.1292 43.6501 70.8076 42.8445 72.1296C42.3458 73.2886 42.0537 74.5258 41.9814 75.7852C41.3484 84.2115 40.2206 92.8907 41.6246 101.271C39.2764 100.548 36.8502 100.108 34.3975 99.9606C30.5077 99.8111 28.068 101.708 24.5695 103.099C23.9481 103.352 22.8203 105.007 24.0862 105.088C31.6471 105.559 37.5623 109.031 43.0747 114.008C47.7239 118.024 52.1678 122.272 56.3896 126.734C64.8136 136.08 70.1994 147.058 73.9281 158.922C74.2733 160.002 75.7234 158.174 75.7234 157.6C75.7325 152.665 75.3824 147.735 74.6761 142.851C73.8023 137.941 72.2532 133.175 70.0728 128.688C80.0504 130.539 92.4908 123.504 97.7615 115.503C103.032 107.502 105.403 98.6845 106.255 89.465C108.257 99.7421 111.871 109.284 118.971 117.71C123.791 123.298 130.461 126.969 137.764 128.056C144.024 129.045 148.397 127.366 153.68 124.688C153.415 127.883 152.529 130.976 152.529 134.252C152.529 137.528 151.654 143.288 153.519 146.012C154.059 146.805 155.026 145.702 155.245 145.173C156.633 141.479 157.786 137.701 158.697 133.861C160.113 128.424 163.116 123.4 166.339 118.917C172.53 110.215 181.069 103.766 191.507 101.398C191.944 101.237 193.533 99.8341 192.589 99.3398Z" fill="#804837"/>
</g>
<path d="M84.0901 53.702C74.9986 61.8984 62.2245 67.5773 49.9108 67.1519C46.5789 73.4391 44.8627 80.4546 44.9163 87.5682C44.9163 107.628 57.8169 123.883 73.6867 123.883C89.5565 123.883 102.457 107.628 102.457 87.5682C102.515 72.1295 94.8617 58.9555 84.0901 53.702Z" fill="white"/>
<path d="M73.7212 124.826C57.322 124.826 43.9726 108.111 43.9726 87.5682C43.9265 80.3002 45.6777 73.1332 49.0707 66.7036C49.1531 66.5482 49.278 66.4193 49.4307 66.3318C49.5835 66.2444 49.7579 66.2019 49.9338 66.2093H51.1997C62.2015 66.2093 74.216 61.2547 83.4226 52.9778C83.5622 52.8513 83.7366 52.7694 83.9233 52.7428C84.1099 52.7161 84.3003 52.7459 84.4698 52.8284C95.978 58.4383 103.424 72.0721 103.424 87.5452C103.447 108.111 90.1203 124.826 73.7212 124.826ZM50.5092 68.1061C47.4372 74.1318 45.8585 80.8063 45.9059 87.5682C45.9059 107.111 58.4038 122.94 73.7672 122.94C89.1306 122.94 101.617 107.076 101.617 87.5682C101.617 73.2906 94.7121 60.2316 84.2857 54.8286C74.826 63.163 62.5237 68.1176 51.2572 68.1176H50.5092V68.1061Z" fill="#381529"/>
<path d="M157.684 56.369C153.992 56.1846 150.314 55.7777 146.671 55.1505H146.567C146.473 55.1522 146.38 55.124 146.302 55.07C142.827 54.4569 139.414 53.5296 136.106 52.2996C123.516 56.1851 114.16 70.4972 114.16 87.5682C114.16 107.628 127.061 123.883 142.931 123.883C158.8 123.883 171.701 107.628 171.701 87.5682C171.759 74.3022 166.108 62.7031 157.684 56.369Z" fill="white"/>
<path d="M142.955 124.826C126.567 124.826 113.218 108.111 113.218 87.5682C113.218 70.3247 122.516 55.5068 135.831 51.4029C136.029 51.3336 136.244 51.3336 136.441 51.4029C139.697 52.6143 143.056 53.53 146.476 54.1388H146.649C146.71 54.1276 146.772 54.1276 146.833 54.1388C150.443 54.7437 154.086 55.1276 157.743 55.2884C157.931 55.301 158.111 55.369 158.261 55.4838C167.306 62.2777 172.704 74.2217 172.704 87.4302C172.704 108.111 159.354 124.826 142.955 124.826ZM136.05 53.2997C123.679 57.2886 115.071 71.3248 115.071 87.5682C115.071 107.111 127.568 122.94 142.92 122.94C158.272 122.94 170.782 107.076 170.782 87.5682C170.782 75.2563 165.626 63.6802 157.306 57.3001C153.731 57.1182 150.169 56.7344 146.638 56.1506C146.4 56.1696 146.162 56.126 145.947 56.0241C142.586 55.4075 139.285 54.4958 136.085 53.2997H136.05Z" fill="#381529"/>
<path d="M91.8587 89.2235C91.8587 101.869 83.7339 112.088 73.7218 112.088C63.7097 112.088 55.585 101.857 55.585 89.2235C55.585 76.5898 63.6407 66.3472 73.7218 66.3472C83.803 66.3472 91.8587 76.5898 91.8587 89.2235Z" fill="#534C4D"/>
<path d="M83.7217 89.2236C83.7217 96.1899 79.245 101.869 73.7211 101.869C68.1972 101.869 63.709 96.2244 63.709 89.2236C63.709 82.2227 68.1972 76.5784 73.7211 76.5784C79.245 76.5784 83.7217 82.2572 83.7217 89.2236Z" fill="#181314"/>
<path d="M73.6179 80.8549C73.6179 85.0163 70.9365 88.396 67.6337 88.396C64.3308 88.396 61.6494 85.0163 61.6494 80.8549C61.6494 76.6935 64.3193 73.3022 67.6337 73.3022C70.948 73.3022 73.6179 76.682 73.6179 80.8549Z" fill="white"/>
<path d="M161.091 89.2235C161.091 101.869 152.978 112.088 142.954 112.088C132.931 112.088 124.817 101.857 124.817 89.2235C124.817 76.5898 132.942 66.3472 142.954 66.3472C152.966 66.3472 161.091 76.5898 161.091 89.2235Z" fill="#534C4D"/>
<path d="M152.933 89.2236C152.933 96.1899 148.456 101.869 142.921 101.869C137.385 101.869 132.92 96.2244 132.92 89.2236C132.92 82.2227 137.397 76.5784 142.921 76.5784C148.444 76.5784 152.933 82.2572 152.933 89.2236Z" fill="#181314"/>
<path d="M142.852 80.8548C142.852 85.0162 140.182 88.3959 136.867 88.3959C133.553 88.3959 130.895 85.0162 130.895 80.8548C130.895 76.6933 133.564 73.3021 136.867 73.3021C140.17 73.3021 142.852 76.6818 142.852 80.8548Z" fill="white"/>
<path d="M68.347 132.367C62.4894 116.802 49.6463 106.846 33.7074 102.742C33.1665 102.604 32.3495 103.754 33.0054 103.995C40.424 106.821 47.3996 110.692 53.7201 115.491C59.9346 120.089 62.9267 127.205 67.2538 133.298C67.6911 133.919 68.5427 132.872 68.347 132.367Z" fill="#430C00"/>
<path d="M178.135 103.823C164.578 107.019 158.03 118.675 153.174 130.527C152.817 131.401 153.922 131.091 154.209 130.608C156.937 126.01 158.882 120.779 162.058 116.491C166.125 111.258 171.657 107.349 177.951 105.26C178.584 105.076 179.182 103.582 178.135 103.823Z" fill="#430C00"/>
<path d="M90.3967 46.1838C84.4219 53.5403 76.4748 59.0466 67.4839 62.0593C58.4039 65.0942 49.4736 66.7495 40.3821 63.1284C39.7492 62.8755 38.7825 64.278 39.5305 64.6343C43.2937 66.3702 47.6438 68.175 51.8328 67.6002C57.0079 66.7789 62.1332 65.6697 67.1847 64.278C77.1392 61.7719 85.0684 54.7481 91.0181 46.6781C91.4784 46.0459 90.9145 45.5631 90.3967 46.1838Z" fill="#430C00"/>
<path d="M178.676 53.5411C173.039 54.6651 167.319 55.3264 161.575 55.5184C154.394 55.7138 147.926 54.4952 140.986 52.8514C134.841 51.4029 128.477 50.2304 122.504 48.1841C117.901 46.6092 114.782 43.4019 110.893 40.7579C110.237 40.3211 109.097 41.7121 109.742 42.2409C113.033 45.1263 115.945 48.2301 120.007 50.0579C126.026 52.7594 133.207 53.8975 139.571 55.3804C145.935 56.8633 152.23 58.2198 158.939 58.1164C165.402 58.0366 171.837 57.2658 178.135 55.8172C178.963 55.6103 179.942 53.3112 178.676 53.5411Z" fill="#430C00"/>
<path d="M94.6548 38.3324C94.4016 37.5967 93.1702 38.8382 93.3544 39.482C94.6778 43.9538 93.6075 48.621 92.0194 52.8859C91.5015 54.2768 93.2853 53.5986 93.6305 52.7479C96.1163 46.8047 97.2786 45.8965 94.6548 38.3324Z" fill="#430C00"/>
<path d="M158.916 173.418C151.401 159.347 132.033 154.806 117.487 155.266C108.221 155.677 99.1957 158.336 91.1904 163.014C85.4579 166.44 80.6128 171.166 77.0469 176.809C76.8512 176.613 76.2068 177.016 76.1032 177.338C75.8846 178.062 75.5048 178.936 75.1135 179.855L73.9627 181.924C73.744 182.315 73.9627 182.453 74.2274 182.384C73.8007 183.481 73.6891 184.676 73.9052 185.833C73.9109 185.895 73.9289 185.955 73.9581 186.01C73.9873 186.065 74.0272 186.114 74.0753 186.153C74.1235 186.193 74.179 186.223 74.2387 186.241C74.2983 186.259 74.361 186.265 74.423 186.258C77.2195 186.327 80.4878 183.131 82.8815 181.867C87.5662 179.385 92.4192 177.234 97.4048 175.429C108.441 171.452 119.086 169.9 130.686 172.188C135.52 173.27 140.261 174.73 144.865 176.556C148.444 177.889 153.553 181.304 157.524 180.844C161.701 180.35 160.343 176.108 158.916 173.418Z" fill="#752900"/>
<path d="M156.971 178.855C153.749 178.591 150.308 176.441 147.339 175.28C143.269 173.667 139.116 172.271 134.899 171.095C126.837 168.843 118.369 168.45 110.133 169.946C102.153 171.607 94.4179 174.28 87.1166 177.901C83.6147 179.582 80.2105 181.458 76.9204 183.522C75.3898 184.488 76.1263 180.924 76.6672 178.671C86.9325 163.853 103.355 156.565 121.607 157.071C130.66 157.327 139.484 159.976 147.178 164.75C150.399 166.682 153.236 169.192 155.544 172.153C156.108 172.866 160.412 179.142 156.971 178.855Z" fill="white"/>
</svg>
